<?xml version="1.0" encoding="utf-8"?>
<!-- Generator: Adobe Illustrator 15.1.0, SVG Export Plug-In . SVG Version: 6.00 Build 0)  -->
<!DOCTYPE svg PUBLIC "-//W3C//DTD SVG 1.1//EN" "http://www.w3.org/Graphics/SVG/1.1/DTD/svg11.dtd">
<svg version="1.1" id="Layer_1" xmlns="http://www.w3.org/2000/svg" xmlns:xlink="http://www.w3.org/1999/xlink" x="0px" y="0px"
	 width="100px" height="100px" viewBox="0 0 100 100" enable-background="new 0 0 100 100" xml:space="preserve">
<linearGradient id="SVGID_1_" gradientUnits="userSpaceOnUse" x1="50.8594" y1="99.3584" x2="50.8594" y2="1.0884">
	<stop  offset="0" style="stop-color:#6D6E71"/>
	<stop  offset="1" style="stop-color:#939598"/>
</linearGradient>
<path fill="url(#SVGID_1_)" d="M89.708,52.127c0.055-0.847,0.103-1.697,0.103-2.559c0-5.836-1.311-11.347-3.6-16.32
	c2.664-1.904,4.41-5.021,4.41-8.548c0-5.803-4.703-10.51-10.507-10.51c-2.871,0-5.466,1.155-7.364,3.016
	c-5.85-4.03-12.841-6.492-20.393-6.843c0-0.025,0.007-0.055,0.007-0.08c0-5.08-4.116-9.196-9.195-9.196s-9.196,4.116-9.196,9.196
	c0,1.198,0.247,2.338,0.663,3.389c-6.22,2.758-11.585,7.085-15.607,12.476c-1.557-0.916-3.367-1.448-5.304-1.448
	c-5.804,0-10.51,4.703-10.51,10.506c0,5.032,3.537,9.232,8.258,10.263c-0.148,1.347-0.231,2.712-0.231,4.099
	c0,6.408,1.575,12.428,4.301,17.768c-2.983,1.518-5.05,4.584-5.05,8.164c0,5.079,4.116,9.195,9.195,9.195
	c3.013,0,5.662-1.47,7.338-3.706c5.956,4.471,13.215,7.266,21.11,7.747c0,0.04-0.004,0.075-0.004,0.112
	c0,5.807,4.703,10.51,10.506,10.51s10.51-4.703,10.51-10.51c0-1.517-0.33-2.955-0.908-4.258c6.832-3.464,12.505-8.862,16.316-15.473
	c1.391,0.847,3.006,1.36,4.754,1.36c5.075,0,9.192-4.116,9.192-9.195C98.503,56.342,94.597,52.341,89.708,52.127z M86.943,24.7
	c0,2.092-0.967,3.946-2.452,5.199c-0.293,0.247-0.601,0.467-0.93,0.663c-0.025,0.014-0.051,0.028-0.076,0.043
	c-0.305,0.177-0.619,0.33-0.948,0.46c-0.124,0.047-0.258,0.08-0.384,0.119c-0.25,0.083-0.501,0.167-0.764,0.217
	c-0.413,0.08-0.841,0.13-1.275,0.13c-3.769,0-6.831-3.066-6.831-6.832c0-0.507,0.062-0.999,0.17-1.474
	c0.021-0.097,0.062-0.188,0.087-0.282c0.105-0.388,0.231-0.764,0.398-1.123c0.029-0.058,0.065-0.108,0.095-0.166
	c0.198-0.391,0.427-0.768,0.695-1.108c0.014-0.015,0.024-0.029,0.035-0.043c0.297-0.373,0.631-0.717,0.996-1.025
	c1.188-0.988,2.69-1.611,4.354-1.611C83.88,17.868,86.943,20.934,86.943,24.7z M58.639,20.345c2.903,0,5.257,2.353,5.257,5.253
	c0,2.904-2.354,5.253-5.257,5.253c-2.899,0-5.253-2.349-5.253-5.253C53.386,22.698,55.739,20.345,58.639,20.345z M58.932,44.401
	c0,3.628-2.939,6.567-6.567,6.567c-3.627,0-6.567-2.939-6.567-6.567c0-3.627,2.94-6.567,6.567-6.567
	C55.992,37.834,58.932,40.774,58.932,44.401z M43.169,4.766c3.041,0,5.517,2.473,5.517,5.518c0,0.04-0.011,0.076-0.011,0.115
	c-0.033,1.488-0.651,2.835-1.64,3.809c-0.025,0.029-0.058,0.047-0.087,0.072c-0.224,0.213-0.463,0.417-0.72,0.59
	c-0.094,0.061-0.196,0.102-0.293,0.155c-0.207,0.123-0.413,0.25-0.634,0.344c-0.181,0.076-0.376,0.12-0.564,0.174
	c-0.156,0.047-0.304,0.112-0.463,0.145c-0.358,0.072-0.724,0.112-1.104,0.112c-0.344,0-0.677-0.043-1.003-0.102
	c-0.102-0.021-0.2-0.047-0.297-0.072c-0.225-0.054-0.445-0.123-0.659-0.203c-0.101-0.04-0.207-0.08-0.308-0.124
	c-0.225-0.102-0.434-0.221-0.641-0.351c-0.069-0.043-0.141-0.076-0.206-0.12c-0.247-0.17-0.475-0.362-0.688-0.568
	c-0.098-0.094-0.188-0.199-0.282-0.305c-0.116-0.126-0.225-0.26-0.326-0.398c-0.094-0.124-0.181-0.246-0.264-0.38
	c-0.086-0.142-0.163-0.29-0.239-0.438c-0.065-0.134-0.141-0.264-0.199-0.405c-0.257-0.634-0.405-1.325-0.405-2.053
	C37.652,7.239,40.128,4.766,43.169,4.766z M6.894,35.206c0-3.765,3.063-6.828,6.832-6.828c1.169,0,2.251,0.322,3.214,0.844l0,0
	c0.753,0.406,1.416,0.948,1.97,1.593c0.069,0.08,0.138,0.16,0.203,0.242c0.138,0.178,0.271,0.362,0.391,0.551
	c0.166,0.265,0.321,0.54,0.448,0.826c0.055,0.119,0.098,0.25,0.145,0.376c0.102,0.268,0.192,0.547,0.257,0.833
	c0.029,0.116,0.054,0.235,0.08,0.355c0.069,0.394,0.119,0.796,0.119,1.209c0,3.769-3.063,6.832-6.828,6.832
	c-0.366,0-0.713-0.051-1.061-0.109c-0.21-0.036-0.419-0.072-0.623-0.126l0,0C9.091,41.049,6.894,38.392,6.894,35.206z
	 M19.688,81.018c-3.041,0-5.518-2.476-5.518-5.518c0-2.197,1.304-4.087,3.171-4.971l0,0c0.345-0.163,0.703-0.289,1.08-0.384
	c0.018-0.003,0.036-0.014,0.058-0.018c0.387-0.09,0.793-0.145,1.209-0.145c3.041,0,5.518,2.476,5.518,5.517
	c0,0.34-0.043,0.674-0.101,0.996c-0.022,0.12-0.055,0.231-0.083,0.348c-0.051,0.195-0.109,0.388-0.181,0.576
	c-0.051,0.137-0.102,0.271-0.167,0.404c-0.069,0.149-0.152,0.293-0.236,0.435c-0.08,0.138-0.151,0.275-0.242,0.402l0,0
	C23.199,80.084,21.552,81.018,19.688,81.018z M28.883,41.777c0-2.175,1.763-3.942,3.938-3.942c2.176,0,3.943,1.767,3.943,3.942
	c0,2.176-1.767,3.939-3.943,3.939C30.646,45.716,28.883,43.953,28.883,41.777z M41.562,74.186c-4.352,0-7.882-3.525-7.882-7.881
	c0-4.352,3.53-7.882,7.882-7.882c4.355,0,7.881,3.53,7.881,7.882C49.443,70.66,45.917,74.186,41.562,74.186z M65.471,88.849
	c0,3.769-3.063,6.832-6.832,6.832c-3.765,0-6.827-3.063-6.827-6.832c0-0.029,0.007-0.062,0.007-0.094
	c0.025-1.854,0.793-3.533,2.02-4.754c0.011-0.011,0.029-0.021,0.04-0.032c0.297-0.29,0.619-0.559,0.963-0.79
	c0.091-0.062,0.192-0.101,0.286-0.155c0.283-0.17,0.562-0.34,0.869-0.47c0.195-0.084,0.413-0.128,0.615-0.192
	c0.221-0.069,0.432-0.155,0.659-0.203c0.441-0.09,0.901-0.138,1.368-0.138c0.424,0,0.833,0.052,1.235,0.123
	c0.123,0.025,0.238,0.055,0.357,0.084c0.287,0.068,0.565,0.155,0.837,0.26c0.116,0.044,0.235,0.084,0.347,0.135
	c0.348,0.155,0.685,0.332,1,0.543c0.083,0.057,0.155,0.123,0.235,0.185c0.228,0.167,0.448,0.348,0.655,0.54
	c0.119,0.114,0.231,0.234,0.344,0.354c0.152,0.167,0.293,0.34,0.431,0.521c0.102,0.135,0.207,0.269,0.301,0.412
	c0.188,0.294,0.358,0.602,0.499,0.924l0.004,0.004l0,0C65.257,86.944,65.471,87.87,65.471,88.849z M69.148,63.68
	c-2.903,0-5.253-2.353-5.253-5.257c0-2.899,2.35-5.253,5.253-5.253c2.9,0,5.254,2.354,5.254,5.253
	C74.402,61.327,72.049,63.68,69.148,63.68z M89.311,66.8c-1.137,0-2.19-0.348-3.07-0.937c-0.34-0.229-0.648-0.5-0.927-0.797
	c-0.079-0.083-0.145-0.177-0.221-0.268c-0.188-0.225-0.357-0.46-0.511-0.713c-0.068-0.12-0.134-0.239-0.195-0.362
	c-0.131-0.257-0.231-0.529-0.321-0.808c-0.037-0.123-0.085-0.242-0.112-0.369c-0.099-0.405-0.161-0.826-0.161-1.264
	c0-3.041,2.474-5.518,5.519-5.518c3.04,0,5.514,2.477,5.514,5.518S92.351,66.8,89.311,66.8z"/>
</svg>
