<?xml version="1.0" encoding="utf-8"?>
<!-- Generator: Adobe Illustrator 15.0.0, SVG Export Plug-In . SVG Version: 6.00 Build 0)  -->
<!DOCTYPE svg PUBLIC "-//W3C//DTD SVG 1.1//EN" "http://www.w3.org/Graphics/SVG/1.1/DTD/svg11.dtd">
<svg version="1.1" id="Layer_1" xmlns="http://www.w3.org/2000/svg" xmlns:xlink="http://www.w3.org/1999/xlink" x="0px" y="0px"
	 width="100px" height="100px" viewBox="0 0 100 100" enable-background="new 0 0 100 100" xml:space="preserve">
<g>
	
		<linearGradient id="SVGID_1_" gradientUnits="userSpaceOnUse" x1="-2480.2588" y1="3353.2871" x2="-2449.1162" y2="3353.2871" gradientTransform="matrix(1 0 0 -1 2538 3431)">
		<stop  offset="0" style="stop-color:#58595B"/>
		<stop  offset="1" style="stop-color:#A7A9AC"/>
	</linearGradient>
	<path fill="url(#SVGID_1_)" d="M63.682,72.133c-1.978,3.33-3.937,6.928-5.94,11.159c10.38,0,20.763,0,31.143,0
		c-2.004-4.231-3.963-7.829-5.938-11.159C76.583,73.373,70.041,73.373,63.682,72.133z"/>
	<linearGradient id="SVGID_2_" gradientUnits="userSpaceOnUse" x1="27.2705" y1="83.0918" x2="32.7783" y2="51.8554">
		<stop  offset="0.1227" style="stop-color:#00A2FF"/>
		<stop  offset="0.7178" style="stop-color:#304361"/>
	</linearGradient>
	<path fill="url(#SVGID_2_)" d="M13.082,54.624c-1.53,1.976-2.897,4.75-2.899,8.069C10.141,74.551,19.417,83.59,30.78,83.292
		c11.362,0.299,20.641-8.74,20.6-20.599c-0.002-3.323-1.373-6.094-2.899-8.069C36.898,57.812,24.665,57.812,13.082,54.624z"/>
	
		<linearGradient id="SVGID_3_" gradientUnits="userSpaceOnUse" x1="-2507.8667" y1="3340.0156" x2="-2507.8667" y2="3421.4238" gradientTransform="matrix(1 0 0 -1 2538 3431)">
		<stop  offset="0" style="stop-color:#6D6E71"/>
		<stop  offset="1" style="stop-color:#939598"/>
	</linearGradient>
	<path fill="url(#SVGID_3_)" d="M45.054,83.127l0.465-0.977c-4.105,3.113-9.202,4.988-14.739,4.988
		c-13.479,0-24.443-10.969-24.443-24.445c0-9.201,8.245-16.852,8.328-16.929c4.127-3.739,7.366-11.041,7.366-16.617V16.167H39.53
		v12.982c0,5.576,3.241,12.877,7.375,16.624c0.075,0.066,7.745,7.211,8.271,15.99l1.41-2.979c0.426-0.894,0.826-2.036,1.188-3.264
		c-2.61-7.438-8.285-12.597-8.285-12.597c-3.36-3.043-6.109-9.243-6.109-13.773V16.167H43.1c1.821,0,3.296-1.477,3.296-3.298
		c0-1.82-1.475-3.294-3.296-3.294H18.185c-1.82,0-3.294,1.474-3.294,3.294c0,1.821,1.474,3.298,3.294,3.298l0,0
		c0,4.766,0,12.982,0,12.982c0,4.531-2.75,10.73-6.109,13.773c0,0-9.584,8.678-9.584,19.771c0,15.627,12.667,28.291,28.289,28.291
		c4.82,0,9.356-1.215,13.33-3.34C44.03,86.184,44.337,84.643,45.054,83.127z"/>
	
		<linearGradient id="SVGID_4_" gradientUnits="userSpaceOnUse" x1="-2510.5503" y1="3377.3799" x2="-2510.5503" y2="3389.9277" gradientTransform="matrix(1 0 0 -1 2538 3431)">
		<stop  offset="0" style="stop-color:#754C29"/>
		<stop  offset="1" style="stop-color:#BC734B"/>
	</linearGradient>
	<path fill="url(#SVGID_4_)" d="M33.668,47.349c0,3.463-2.785,6.271-6.218,6.271c-3.433,0-6.218-2.808-6.218-6.271
		c0-3.467,2.785-6.278,6.218-6.278C30.883,41.07,33.668,43.882,33.668,47.349z"/>
	
		<linearGradient id="SVGID_5_" gradientUnits="userSpaceOnUse" x1="-2506.2622" y1="3394.3047" x2="-2506.2622" y2="3400.6133" gradientTransform="matrix(1 0 0 -1 2538 3431)">
		<stop  offset="0" style="stop-color:#0095DA"/>
		<stop  offset="1" style="stop-color:#00B9F2"/>
	</linearGradient>
	<circle fill="url(#SVGID_5_)" cx="31.738" cy="33.54" r="3.154"/>
	
		<linearGradient id="SVGID_6_" gradientUnits="userSpaceOnUse" x1="-2463.7896" y1="3362.1484" x2="-2463.7896" y2="3370.8926" gradientTransform="matrix(1 0 0 -1 2538 3431)">
		<stop  offset="0" style="stop-color:#00A1E4"/>
		<stop  offset="1" style="stop-color:#00B9F2"/>
	</linearGradient>
	<circle fill="url(#SVGID_6_)" cx="74.21" cy="64.479" r="4.372"/>
	
		<linearGradient id="SVGID_7_" gradientUnits="userSpaceOnUse" x1="-2465.7212" y1="3375.7793" x2="-2465.7212" y2="3381.0469" gradientTransform="matrix(1 0 0 -1 2538 3431)">
		<stop  offset="0" style="stop-color:#754C29"/>
		<stop  offset="1" style="stop-color:#BC734B"/>
	</linearGradient>
	<circle fill="url(#SVGID_7_)" cx="72.278" cy="52.587" r="2.634"/>
	
		<linearGradient id="SVGID_8_" gradientUnits="userSpaceOnUse" x1="-2464.688" y1="3340.0156" x2="-2464.688" y2="3404.1191" gradientTransform="matrix(1 0 0 -1 2538 3431)">
		<stop  offset="0" style="stop-color:#6D6E71"/>
		<stop  offset="1" style="stop-color:#939598"/>
	</linearGradient>
	<path fill="url(#SVGID_8_)" d="M98.095,84.775L86.562,60.432c-1.616-3.419-2.941-9.303-2.941-13.083V33.476l0,0
		c1.82,0,3.295-1.477,3.295-3.298c0-1.824-1.475-3.298-3.295-3.298H63.005c-1.819,0-3.293,1.474-3.293,3.298
		c0,1.821,1.474,3.298,3.293,3.298l0,0v13.873c0,3.78-1.325,9.664-2.942,13.083L48.529,84.775c-1.619,3.416,0.148,6.209,3.929,6.209
		h20.854h20.854C97.945,90.984,99.713,88.191,98.095,84.775z M94.166,87.14H52.458c-0.313,0-0.533-0.038-0.67-0.079
		c0.021-0.141,0.082-0.355,0.216-0.639l11.533-24.345c1.855-3.924,3.314-10.392,3.314-14.729V33.476h12.92v13.873
		c0,4.336,1.455,10.805,3.316,14.729L94.62,86.423c0.133,0.282,0.192,0.498,0.216,0.64C94.7,87.102,94.477,87.14,94.166,87.14z"/>
</g>
</svg>
