<?xml version="1.0" encoding="utf-8"?>
<!-- Generator: Adobe Illustrator 15.0.0, SVG Export Plug-In . SVG Version: 6.00 Build 0)  -->
<!DOCTYPE svg PUBLIC "-//W3C//DTD SVG 1.1//EN" "http://www.w3.org/Graphics/SVG/1.1/DTD/svg11.dtd">
<svg version="1.1" id="Layer_1" xmlns="http://www.w3.org/2000/svg" xmlns:xlink="http://www.w3.org/1999/xlink" x="0px" y="0px"
	 width="100px" height="100px" viewBox="0 0 100 100" enable-background="new 0 0 100 100" xml:space="preserve">
<g>
	
		<linearGradient id="SVGID_1_" gradientUnits="userSpaceOnUse" x1="-5025.7383" y1="783.0859" x2="-5025.7383" y2="775.4492" gradientTransform="matrix(1 0 0 1 5076 -691)">
		<stop  offset="0" style="stop-color:#6D6E71"/>
		<stop  offset="1" style="stop-color:#939598"/>
	</linearGradient>
	<path fill="url(#SVGID_1_)" d="M98.839,89.539c0,1.398-1.144,2.547-2.545,2.547H4.231c-1.402,0-2.547-1.146-2.547-2.547v-2.547
		c0-1.399,1.145-2.543,2.547-2.543h92.063c1.401,0,2.545,1.144,2.545,2.543V89.539z"/>
	<g>
		<linearGradient id="SVGID_2_" gradientUnits="userSpaceOnUse" x1="80.9805" y1="8.2012" x2="80.9805" y2="79.2378">
			<stop  offset="0" style="stop-color:#00A2FF"/>
			<stop  offset="0.865" style="stop-color:#25354F"/>
		</linearGradient>
		<path fill="url(#SVGID_2_)" d="M93.706,79.237V13.291c0-2.799-2.29-5.09-5.089-5.09H73.345c-2.801,0-5.091,2.291-5.091,5.09
			v65.946H93.706z"/>
		
			<linearGradient id="SVGID_3_" gradientUnits="userSpaceOnUse" x1="-5056.457" y1="770.2393" x2="-5056.457" y2="740.0479" gradientTransform="matrix(1 0 0 1 5076 -691)">
			<stop  offset="0" style="stop-color:#939598"/>
			<stop  offset="1" style="stop-color:#D1D3D4"/>
		</linearGradient>
		<path fill="url(#SVGID_3_)" d="M32.269,79.237V54.141c0-2.803-2.29-5.093-5.091-5.093H11.906c-2.799,0-5.089,2.29-5.089,5.093
			v25.099L32.269,79.237L32.269,79.237z"/>
	</g>
	
		<linearGradient id="SVGID_4_" gradientUnits="userSpaceOnUse" x1="-5025.5635" y1="770.2373" x2="-5025.5635" y2="719.6582" gradientTransform="matrix(1 0 0 1 5076 -691)">
		<stop  offset="0" style="stop-color:#58595B"/>
		<stop  offset="1" style="stop-color:#A7A9AC"/>
	</linearGradient>
	<path fill="url(#SVGID_4_)" d="M63.163,79.237V33.751c0-2.802-2.291-5.093-5.09-5.093H42.801c-2.801,0-5.091,2.291-5.091,5.093
		v45.486H63.163z"/>
</g>
</svg>
