<?xml version="1.0" encoding="utf-8"?>
<!-- Generator: Adobe Illustrator 15.0.0, SVG Export Plug-In . SVG Version: 6.00 Build 0)  -->
<!DOCTYPE svg PUBLIC "-//W3C//DTD SVG 1.1//EN" "http://www.w3.org/Graphics/SVG/1.1/DTD/svg11.dtd">
<svg version="1.1" id="Layer_1" xmlns="http://www.w3.org/2000/svg" xmlns:xlink="http://www.w3.org/1999/xlink" x="0px" y="0px"
	 width="100px" height="100px" viewBox="0 0 100 100" enable-background="new 0 0 100 100" xml:space="preserve">
<linearGradient id="SVGID_1_" gradientUnits="userSpaceOnUse" x1="-2512.7993" y1="3419.1045" x2="-2512.7993" y2="3358.5059" gradientTransform="matrix(1 0 0 -1 2538 3431)">
	<stop  offset="0" style="stop-color:#00A2FF"/>
	<stop  offset="0.8405" style="stop-color:#132442"/>
</linearGradient>
<path fill="url(#SVGID_1_)" d="M48.181,43.024c-2-2.879-2.912-4.552-3.198-5.09c-0.049-0.098-1.006-1.517-1.006-2.858
	c0-1.177,1.045-6.15-1.121-11.158c-3.574-7.122-10.925-12.022-19.438-12.022c-12.018,0-21.759,9.741-21.759,21.757
	c0,5.658,2.408,10.649,5.713,14.661c3.13,3.797,6.123,15.021-1.127,18.161c-0.863,0-1.571,0.709-1.571,1.571v2.88
	c0,0.862,0.708,1.568,1.571,1.568h25.463c0.863,0,1.571-0.706,1.571-1.568c0-0.863-4.025-4.406-1.76-8.729
	c1.698-3.241,7.123-3.308,9.955-3.308c1.491,0,2.841-0.798,3.104-2.084c0.264-1.284,0.584-3.299,0.584-3.299s0.02-0.72,0.437-1.138
	c0.145-0.146,1.082-0.368,1.082-1.116c0-0.74-0.614-0.731-0.614-0.96c0-0.206,0.764-0.26,0.764-1.119
	c0-0.854-1.028-1.242-1.028-2.295c0-0.738,1.475-0.783,2.354-1.326C48.854,45.17,49.009,44.028,48.181,43.024z"/>
<g>
	
		<linearGradient id="SVGID_2_" gradientUnits="userSpaceOnUse" x1="-6416.876" y1="764.3877" x2="-6416.876" y2="703.791" gradientTransform="matrix(-1 0 0 1 -6341.7246 -691)">
		<stop  offset="0" style="stop-color:#595A5C"/>
		<stop  offset="1" style="stop-color:#A6A8AC"/>
	</linearGradient>
	<path fill="url(#SVGID_2_)" d="M52.194,46.449c0.881,0.543,2.354,0.588,2.354,1.326c0,1.054-1.026,1.44-1.026,2.295
		c0,0.857,0.765,0.912,0.765,1.117c0,0.229-0.614,0.222-0.614,0.961c0,0.748,0.938,0.973,1.082,1.116
		c0.417,0.419,0.438,1.139,0.438,1.139s0.319,2.015,0.584,3.299c0.266,1.286,1.613,2.084,3.104,2.084
		c2.832,0,8.258,0.063,9.956,3.306c2.267,4.322-1.761,7.866-1.761,8.729c0,0.862,0.707,1.566,1.568,1.566h25.463
		c0.863,0,1.57-0.704,1.57-1.566v-2.88c0-0.863-0.707-1.57-1.57-1.57c-7.25-3.143-4.258-14.365-1.127-18.162
		c3.308-4.011,5.716-9.004,5.716-14.661c0-12.016-9.742-21.757-21.761-21.757c-8.514,0-15.863,4.9-19.438,12.022
		c-2.165,5.008-1.12,9.982-1.12,11.159c0,1.341-0.957,2.761-1.006,2.858c-0.286,0.539-1.2,2.211-3.198,5.09
		C51.342,44.924,51.498,46.066,52.194,46.449z"/>
</g>
<g>
	
		<linearGradient id="SVGID_3_" gradientUnits="userSpaceOnUse" x1="-5025.7725" y1="779.5039" x2="-5025.7725" y2="752.9199" gradientTransform="matrix(1 0 0 1 5076 -691)">
		<stop  offset="0" style="stop-color:#FFFFFF"/>
		<stop  offset="0.2423" style="stop-color:#F7F6F6"/>
		<stop  offset="0.5452" style="stop-color:#E7E6E7"/>
		<stop  offset="0.8792" style="stop-color:#CFCFD0"/>
		<stop  offset="1" style="stop-color:#C5C6C8"/>
	</linearGradient>
	<path fill="url(#SVGID_3_)" d="M80.32,88.504C72.043,75.669,56.445,68.138,50.227,61.92c-6.218,6.218-21.815,13.749-30.092,26.584
		H80.32z"/>
</g>
</svg>
