<?xml version="1.0" encoding="utf-8"?>
<!-- Generator: Adobe Illustrator 15.0.0, SVG Export Plug-In . SVG Version: 6.00 Build 0)  -->
<!DOCTYPE svg PUBLIC "-//W3C//DTD SVG 1.1//EN" "http://www.w3.org/Graphics/SVG/1.1/DTD/svg11.dtd">
<svg version="1.1" id="Layer_1" xmlns="http://www.w3.org/2000/svg" xmlns:xlink="http://www.w3.org/1999/xlink" x="0px" y="0px"
	 width="100px" height="100px" viewBox="0 0 100 100" enable-background="new 0 0 100 100" xml:space="preserve">
<linearGradient id="SVGID_1_" gradientUnits="userSpaceOnUse" x1="49.9995" y1="0" x2="49.9995" y2="97.5767">
	<stop  offset="0" style="stop-color:#00A2FF"/>
	<stop  offset="0.9264" style="stop-color:#101F3E"/>
</linearGradient>
<path fill="url(#SVGID_1_)" d="M98.788,37.842L83.874,12.009L65.246,22.762V0H34.754v22.762L16.126,12.009L1.212,37.842
	l18.959,10.947L1.212,59.734l14.914,25.83l18.627-10.754v22.766h30.492V74.811l18.628,10.756l14.914-25.83L79.829,48.789
	L98.788,37.842z M52.113,12.197c2.343,0,4.242,1.899,4.242,4.243c0,2.343-1.899,4.24-4.242,4.24c-2.342,0-4.242-1.896-4.242-4.24
	C47.871,14.097,49.771,12.197,52.113,12.197L52.113,12.197z M54.119,23.727L53.9,37.779c-0.315-0.253-0.636-0.5-0.946-0.746
	c-0.972-0.764-1.867-1.473-2.674-2.147l-0.176-11.159c0.642,0.177,1.313,0.28,2.009,0.28C52.809,24.007,53.479,23.904,54.119,23.727
	L54.119,23.727z M53.175,84.318l-1.062,1.061l-1.062-1.061l-0.049-3.08c0.653,0.311,1.257,0.617,1.493,0.828l0.122,0.109
	l0.131,0.096c0.121,0.094,0.121,0.094,0.229,0.383c0.065,0.178,0.14,0.34,0.215,0.496L53.175,84.318z M56.404,81.951
	c-0.374,0.01-0.211-1.273-1.686-2.357c-1.367-1.229-4.119-1.924-7.335-3.982c-1.533-1.01-3.408-3.088-3.303-5.727
	c-0.113-2.471,1.566-4.766,3.32-6.098l0.07,4.537c-1,1.869-0.41,3.996,1.404,5.299c2.47,1.951,5.434,3.123,6.866,4.969
	C57.352,80.471,56.552,82.105,56.404,81.951L56.404,81.951z M50.495,48.658c0.937,0.759,2.464,2.15,3.18,3.602l-0.319,20.383
	c-0.838-0.516-1.681-1.049-2.416-1.631l-0.061-0.047l-0.035-0.025L50.495,48.658z M60.571,56.674
	c-0.88,2.164-2.222,3.701-3.714,4.912l0.09-5.729c0.053-0.131,0.117-0.256,0.158-0.393c1.218-3.508-1.427-6.943-4.711-9.552
	c-3.19-2.686-6.655-4.964-9.314-7.647c-2.725-2.537-4.457-6.146-4.174-8.814c0.07-1.269,0.312-2.202,0.529-2.835
	c0.178-0.53-0.096-1.131-0.37-1.62c-0.367-0.659-0.228-1.581,0.538-2.443c0.895-1.017,2.969-2.351,4.485-3.015
	c1.372-0.599,3.875,0,3.82,1.496c0,0-0.473,3.655-1.023,4.766c-0.749,1.51-1.719,2.202-3.085,1.858
	c-0.252-0.063-0.534,0.245-0.67,0.787c-0.356,1.397-0.427,3.945,2.813,6.979c2.229,2.302,5.574,4.563,9.015,7.516
	C58.2,45.465,62.72,50.771,60.571,56.674L60.571,56.674z"/>
</svg>
