<?xml version="1.0" encoding="utf-8"?>
<!-- Generator: Adobe Illustrator 15.0.0, SVG Export Plug-In . SVG Version: 6.00 Build 0)  -->
<!DOCTYPE svg PUBLIC "-//W3C//DTD SVG 1.1//EN" "http://www.w3.org/Graphics/SVG/1.1/DTD/svg11.dtd">
<svg version="1.1" id="Layer_1" xmlns="http://www.w3.org/2000/svg" xmlns:xlink="http://www.w3.org/1999/xlink" x="0px" y="0px"
	 width="100px" height="100px" viewBox="0 0 100 100" enable-background="new 0 0 100 100" xml:space="preserve">
<g>
	<path fill="#4E4E50" d="M55.418,49.777H31.111v3.109h21.194L55.418,49.777z M31.111,71.555h4.248
		c0.653-1.106,1.358-2.156,2.066-3.109h-6.312L31.111,71.555L31.111,71.555z M12.444,77.777h12.442V65.333H12.444V77.777z
		 M15.556,68.439h6.224v6.227h-6.224V68.439z M74.666,65.72v15.169c0,3.323-1.296,6.446-3.646,8.801
		c-2.352,2.351-5.475,3.645-8.799,3.645H18.667c-3.324,0-6.45-1.294-8.802-3.646c-2.348-2.353-3.646-5.476-3.646-8.799V18.664
		h68.445v3.064l4.369-4.368c0.51-0.513,1.063-0.967,1.638-1.39c-0.56-3.842-2.296-7.547-5.253-10.501
		C71.775,1.823,66.998,0,62.222,0H18.667C13.889,0,9.111,1.823,5.466,5.469C1.821,9.111,0,13.891,0,18.667v62.222
		c0,4.775,1.821,9.557,5.466,13.197c3.646,3.646,8.423,5.469,13.201,5.469h43.555c4.776,0,9.557-1.822,13.198-5.469
		c3.646-3.643,5.469-8.422,5.469-13.197V59.498L74.666,65.72z M28,6.221h24.889C54.6,6.221,56,7.623,56,9.333
		c0,1.711-1.4,3.111-3.111,3.111H28c-1.712,0-3.111-1.4-3.111-3.111C24.889,7.623,26.288,6.222,28,6.221L28,6.221z M62.222,34.17
		v-3.06H31.112v3.109H62.17L62.222,34.17z M24.889,46.666H12.444V59.11h12.442L24.889,46.666L24.889,46.666z M21.777,56h-6.224
		v-6.226h6.224V56z M24.889,28H12.444v12.444h12.442L24.889,28L24.889,28z M21.777,37.333h-6.224v-6.225h6.224V37.333z"/>
	<linearGradient id="SVGID_1_" gradientUnits="userSpaceOnUse" x1="35.6792" y1="53.2959" x2="99.5527" y2="53.2959">
		<stop  offset="0.0368" style="stop-color:#00A2FF"/>
		<stop  offset="1" style="stop-color:#000000"/>
	</linearGradient>
	<path fill="url(#SVGID_1_)" d="M38.697,81.896l-2.562,2.559c-0.605,0.607-0.609,1.592,0,2.199c0.606,0.606,1.592,0.606,2.2,0
		l2.562-2.56c3.119,0.673,8.813-2.217,13.934-7.342l-8.798-8.797C40.909,73.078,38.021,78.775,38.697,81.896L38.697,81.896z
		 M83.434,21.759L65.833,39.356c-0.608,0.607-0.608,1.592,0.001,2.2c0.607,0.607,1.591,0.607,2.199,0l17.601-17.597
		c0.847-0.848,2.005-1.367,3.298-1.367c1.021,0,1.946,0.331,2.713,0.883c-1.039,0.293-1.969,0.843-2.713,1.584l-40.7,40.699
		l8.802,8.801l40.698-40.701c1.125-1.123,1.82-2.68,1.82-4.399c0-1.715-0.695-3.273-1.82-4.399
		c-0.004-0.003-0.012-0.006-0.015-0.009l-3.287-3.291c-1.402-1.407-3.357-2.278-5.501-2.278
		C86.789,19.482,84.835,20.353,83.434,21.759L83.434,21.759z"/>
</g>
</svg>
