<?xml version="1.0" encoding="utf-8"?>
<!-- Generator: Adobe Illustrator 15.0.0, SVG Export Plug-In . SVG Version: 6.00 Build 0)  -->
<!DOCTYPE svg PUBLIC "-//W3C//DTD SVG 1.1//EN" "http://www.w3.org/Graphics/SVG/1.1/DTD/svg11.dtd">
<svg version="1.1" id="Layer_1" xmlns="http://www.w3.org/2000/svg" xmlns:xlink="http://www.w3.org/1999/xlink" x="0px" y="0px"
	 width="100px" height="100px" viewBox="0 0 100 100" enable-background="new 0 0 100 100" xml:space="preserve">
<g>
	<path fill="#2993CE" d="M85.031,53.588c-0.65,3.589-2.223,5.943-3.873,7.68c14.799-1.091,21.062,13.149-13.949,13.18
		C105.45,79.191,108.008,57.68,85.031,53.588z"/>
	
		<linearGradient id="SVGID_1_" gradientUnits="userSpaceOnUse" x1="-5034.3604" y1="761.8828" x2="-5034.3604" y2="720.5635" gradientTransform="matrix(1 0 0 1 5076 -691)">
		<stop  offset="0" style="stop-color:#6D6E71"/>
		<stop  offset="1" style="stop-color:#939598"/>
	</linearGradient>
	<path fill="url(#SVGID_1_)" d="M81.846,46.17c-6.562-25.507-41.15-16.042-55.965-8.166c0-4.118-1.908-7.458-4.263-7.458
		c-1.938,0-3.552,2.273-4.071,5.37c-1.391-1.576-3.04-2.349-4.411-1.848c-2.211,0.804-1.648,5.237-0.957,7.146
		c0.692,1.905,1.262,2.295,2.428,3.3C9.872,48.106,2.629,54.66,1.157,57.545c-0.631,3.232,9.873,3.243,17.702,2.98
		c4.871-0.393,13.339,1.481,10.948,3.689c-4.566,4.221-6.479,1.891-7.208,4.479c-0.348,1.24,0.603,2.188,1.486,2.188
		c4.118,0,13.009,0,13.933,0c1.127,0,3.157,0.143,3.654-1.808c0.546-1.759-1.886-2.296-0.823-3.89
		c15.083,1.311,19.479-0.623,20.841-1.76c-10.479-4.469-9.812-13.788-4.727-17.935c-4.35,11.672,5.671,12.683,8.887,16.724
		c4.463,5.612-9.011,3.893-9.735,6.479c-0.347,1.24,0.604,2.188,1.485,2.188c4.118,0,12.704,0,13.633,0
		c1.13,0,2.759-0.006,3.256-1.958C75,67.15,72.971,66.3,73.741,64.408C75.543,60.002,83.821,59.528,81.846,46.17z M15.861,52.993
		c-1.418,0-2.566-1.148-2.566-2.566c0-1.415,1.148-2.562,2.566-2.562c1.416,0,2.564,1.148,2.564,2.562
		C18.427,51.845,17.276,52.993,15.861,52.993z"/>
</g>
</svg>
