<?xml version="1.0" encoding="utf-8"?>
<!-- Generator: Adobe Illustrator 15.0.0, SVG Export Plug-In . SVG Version: 6.00 Build 0)  -->
<!DOCTYPE svg PUBLIC "-//W3C//DTD SVG 1.1//EN" "http://www.w3.org/Graphics/SVG/1.1/DTD/svg11.dtd">
<svg version="1.1" id="Layer_1" xmlns="http://www.w3.org/2000/svg" xmlns:xlink="http://www.w3.org/1999/xlink" x="0px" y="0px"
	 width="100px" height="100px" viewBox="0 0 100 100" enable-background="new 0 0 100 100" xml:space="preserve">
<g>
	<path fill="#4E4E50" d="M93.486,7.025c-3.535-3.535-8.167-5.302-12.803-5.302H20.337c-4.635,0-9.267,1.768-12.803,5.302
		c-3.536,3.535-5.301,8.168-5.301,12.802v60.347c0,4.633,1.765,9.268,5.301,12.801c3.536,3.537,8.168,5.305,12.803,5.305h60.347
		c4.637,0,9.269-1.768,12.804-5.305c3.536-3.533,5.302-8.168,5.302-12.801V19.827C98.788,15.194,97.023,10.56,93.486,7.025
		L93.486,7.025z M83.701,6.249c2.502,0,4.525,2.027,4.525,4.526c0,2.5-2.023,4.526-4.525,4.526c-2.498,0-4.525-2.026-4.525-4.526
		C79.176,8.276,81.203,6.249,83.701,6.249L83.701,6.249z M68.614,6.249c2.502,0,4.524,2.027,4.524,4.526
		c0,2.5-2.022,4.526-4.524,4.526c-2.498,0-4.525-2.026-4.525-4.526C64.089,8.276,66.116,6.249,68.614,6.249L68.614,6.249z
		 M53.527,6.249c2.498,0,4.524,2.027,4.524,4.526c0,2.5-2.026,4.526-4.524,4.526c-2.502,0-4.525-2.026-4.525-4.526
		C49.002,8.276,51.025,6.249,53.527,6.249L53.527,6.249z M92.753,80.174c0,3.225-1.255,6.254-3.535,8.537
		c-2.278,2.277-5.311,3.531-8.534,3.531H20.337c-3.224,0-6.256-1.254-8.536-3.533c-2.278-2.281-3.536-5.311-3.536-8.535V19.826
		h84.488V80.174z"/>
	<linearGradient id="SVGID_1_" gradientUnits="userSpaceOnUse" x1="14.3027" y1="56.0361" x2="86.7158" y2="56.0361">
		<stop  offset="0.1534" style="stop-color:#2993CE"/>
		<stop  offset="0.9632" style="stop-color:#4B5E7C"/>
	</linearGradient>
	<path fill="url(#SVGID_1_)" d="M44.361,28.195L37.36,58.299H32.97c-1.129,0-2.166,0.633-2.685,1.633l-2.561,4.965l-4.682-16.154
		c-0.372-1.279-1.523-2.157-2.855-2.176c-1.329-0.018-2.51,0.828-2.917,2.092L14.303,58.3v6.035h2.068
		c1.314,0,2.469-0.844,2.873-2.096l0.749-2.332l4.042,13.939c0.345,1.188,1.371,2.043,2.604,2.164
		c1.232,0.119,2.405-0.518,2.975-1.618l5.19-10.06h4.951c1.402,0,2.622-0.969,2.94-2.336l4.439-19.102l8.523,40.914
		c0.271,1.312,1.371,2.278,2.705,2.392c0.083,0.006,0.168,0.012,0.251,0.012c1.237,0,2.354-0.756,2.811-1.926l7.858-20.211
		l3.145,7.465c0.428,1.021,1.383,1.723,2.481,1.832c1.102,0.108,2.175-0.394,2.796-1.31l5.245-7.729h3.766v-6.035H81.35
		c-0.996,0-1.936,0.494-2.494,1.324l-3.022,4.451l-3.878-9.211c-0.475-1.135-1.591-1.863-2.822-1.848
		c-1.229,0.02-2.324,0.779-2.77,1.924L59.49,72.607l-9.236-44.345c-0.289-1.383-1.51-2.386-2.921-2.402c-0.015,0-0.026,0-0.038,0
		C45.902,25.862,44.677,26.833,44.361,28.195L44.361,28.195z"/>
</g>
</svg>
