<?xml version="1.0" encoding="utf-8"?>
<!-- Generator: Adobe Illustrator 15.0.0, SVG Export Plug-In . SVG Version: 6.00 Build 0)  -->
<!DOCTYPE svg PUBLIC "-//W3C//DTD SVG 1.1//EN" "http://www.w3.org/Graphics/SVG/1.1/DTD/svg11.dtd">
<svg version="1.1" id="Layer_1" xmlns="http://www.w3.org/2000/svg" xmlns:xlink="http://www.w3.org/1999/xlink" x="0px" y="0px"
	 width="100px" height="100px" viewBox="0 0 100 100" enable-background="new 0 0 100 100" xml:space="preserve">
<g>
	<g>
		
			<linearGradient id="SVGID_1_" gradientUnits="userSpaceOnUse" x1="-2487.5552" y1="3361.5479" x2="-2487.5552" y2="3429.7666" gradientTransform="matrix(1 0 0 -1 2538 3431)">
			<stop  offset="0" style="stop-color:#58595B"/>
			<stop  offset="1" style="stop-color:#A7A9AC"/>
		</linearGradient>
		<path fill="url(#SVGID_1_)" d="M52.441,30.76c2.087-1.373,4.543-3.01,6.957-4.72l1.425-1.007
			c9.347-6.782,16.877-14.224,16.493-23.8h-7.997c0.137,1.852-0.384,3.693-1.356,5.515H55.275c-1.571,0-2.84,1.272-2.84,2.839
			c0,1.568,1.269,2.84,2.84,2.84c0,0,0.003,0,0.007,0h8.216c-4.485,4.404-10.904,8.635-16.893,12.58
			c-11.85,7.799-23.047,15.168-23.047,25.058c0,7.479,6.403,13.517,14.649,19.387c2.348-1.662,4.744-3.265,7.113-4.824
			c-3.334-2.28-6.5-4.61-8.96-6.89h9.246c0.004,0,0.007,0,0.007,0c1.567,0,2.843-1.275,2.843-2.844c0-1.567-1.275-2.842-2.843-2.842
			H31.99c-0.263-0.676-0.414-1.342-0.414-1.988c0-1.208,0.508-2.476,1.359-3.778h12.67c0.004,0,0.007,0,0.007,0
			c1.567,0,2.843-1.271,2.843-2.84c0-1.569-1.275-2.841-2.843-2.841h-7.2c3.644-3.003,8.253-6.042,12.597-8.9
			C51.487,31.39,51.965,31.076,52.441,30.76z"/>
		
			<linearGradient id="SVGID_2_" gradientUnits="userSpaceOnUse" x1="-2473.1187" y1="3332.1016" x2="-2473.1187" y2="3354.583" gradientTransform="matrix(1 0 0 -1 2538 3431)">
			<stop  offset="0" style="stop-color:#58595B"/>
			<stop  offset="1" style="stop-color:#A7A9AC"/>
		</linearGradient>
		<path fill="url(#SVGID_2_)" d="M62.594,76.417c-1.713,1.164-3.453,2.312-5.186,3.451c-0.612,0.403-1.262,0.835-1.932,1.276
			c2.968,2.131,5.75,4.322,8.027,6.56h-8.223c-0.004,0-0.008,0-0.008,0c-1.57,0-2.84,1.27-2.84,2.841c0,1.565,1.27,2.842,2.84,2.842
			h12.709c0.97,1.815,1.473,3.656,1.336,5.512h7.996C77.676,89.938,71.1,82.847,62.594,76.417z"/>
	</g>
	<g>
		
			<linearGradient id="SVGID_3_" gradientUnits="userSpaceOnUse" x1="-2514.4429" y1="3366.2109" x2="-2460.6699" y2="3366.2109" gradientTransform="matrix(1 0 0 -1 2538 3431)">
			<stop  offset="0.1411" style="stop-color:#00A2FF"/>
			<stop  offset="0.9632" style="stop-color:#0040D0"/>
		</linearGradient>
		<path fill="url(#SVGID_3_)" d="M62.681,30.679c-2.345,1.662-4.743,3.265-7.108,4.825c-0.008-0.005-0.014-0.01-0.023-0.013
			c2.477,1.689,4.855,3.41,6.924,5.115h-7.195c-1.571,0-2.84,1.272-2.84,2.841c0,1.57,1.269,2.84,2.84,2.84c0,0,0.003,0,0.007,0
			H67.96c0.854,1.302,1.354,2.569,1.354,3.778c0,0.646-0.154,1.313-0.414,1.988H55.275c-1.571,0-2.84,1.273-2.84,2.842
			c0,1.567,1.269,2.844,2.84,2.844c0,0,0.003,0,0.007,0h9.249c-3.842,3.57-9.444,7.259-14.652,10.688
			c-13.206,8.69-26.819,17.678-26.308,30.473h7.998c-0.139-1.854,0.387-3.695,1.358-5.512h12.685c1.567,0,2.843-1.275,2.843-2.842
			c0-1.571-1.275-2.841-2.843-2.841c0,0-0.003,0-0.007,0h-8.219c4.492-4.403,10.904-8.636,16.896-12.581
			C66.136,67.325,77.33,59.957,77.33,50.065C77.33,42.585,70.928,36.55,62.681,30.679z"/>
		
			<linearGradient id="SVGID_4_" gradientUnits="userSpaceOnUse" x1="-2514.4424" y1="3418.5254" x2="-2489.5439" y2="3418.5254" gradientTransform="matrix(1 0 0 -1 2538 3431)">
			<stop  offset="0.1411" style="stop-color:#00A2FF"/>
			<stop  offset="0.9632" style="stop-color:#0040D0"/>
		</linearGradient>
		<path fill="url(#SVGID_4_)" d="M38.294,23.714c1.713-1.162,3.453-2.31,5.186-3.452c0.612-0.402,1.265-0.833,1.931-1.273
			c-2.971-2.133-5.747-4.325-8.028-6.561h8.223c0.004,0,0.007,0,0.007,0c1.567,0,2.843-1.272,2.843-2.84
			c0-1.567-1.275-2.839-2.843-2.839H32.908c-0.972-1.822-1.478-3.663-1.339-5.515h-7.998C23.215,10.193,29.79,17.284,38.294,23.714z
			"/>
	</g>
</g>
</svg>
