<?xml version="1.0" encoding="utf-8"?>
<!-- Generator: Adobe Illustrator 15.0.0, SVG Export Plug-In . SVG Version: 6.00 Build 0)  -->
<!DOCTYPE svg PUBLIC "-//W3C//DTD SVG 1.1//EN" "http://www.w3.org/Graphics/SVG/1.1/DTD/svg11.dtd">
<svg version="1.1" id="Layer_1" xmlns="http://www.w3.org/2000/svg" xmlns:xlink="http://www.w3.org/1999/xlink" x="0px" y="0px"
	 width="100px" height="100px" viewBox="0 0 100 100" enable-background="new 0 0 100 100" xml:space="preserve">
<g>
	<path fill="#00A2FF" d="M29.737,15.466c-0.471,0.193-0.709,0.793-0.537,1.332l0.946,2.928c-1.147,0.774-2.102,1.753-2.853,2.858
		l-2.931-0.943c-0.541-0.178-1.141,0.061-1.332,0.533c-0.193,0.467-0.511,1.236-0.708,1.703c-0.195,0.466,0.058,1.063,0.563,1.318
		l2.741,1.407c-0.252,1.311-0.266,2.681-0.003,4.038l-2.738,1.401c-0.507,0.258-0.761,0.854-0.563,1.323
		c0.197,0.467,0.512,1.231,0.706,1.704c0.192,0.467,0.792,0.711,1.333,0.534l2.926-0.948c0.776,1.146,1.753,2.104,2.859,2.854
		l-0.946,2.93c-0.176,0.542,0.066,1.142,0.537,1.333c0.469,0.193,1.234,0.512,1.703,0.705c0.467,0.198,1.063-0.057,1.32-0.562
		l1.405-2.744c1.313,0.253,2.681,0.267,4.038,0.006l1.403,2.736c0.256,0.507,0.852,0.76,1.319,0.564
		c0.467-0.193,1.233-0.512,1.703-0.705c0.472-0.192,0.713-0.792,0.537-1.333l-0.946-2.926c1.147-0.774,2.104-1.753,2.854-2.859
		l2.931,0.948c0.54,0.172,1.14-0.066,1.332-0.537c0.194-0.469,0.512-1.234,0.706-1.705c0.197-0.465-0.056-1.062-0.565-1.319
		l-2.743-1.403c0.254-1.313,0.268-2.684,0.007-4.04l2.738-1.399c0.507-0.26,0.756-0.856,0.563-1.322
		c-0.194-0.467-0.512-1.236-0.706-1.703c-0.192-0.472-0.792-0.711-1.332-0.537l-2.926,0.947c-0.777-1.147-1.753-2.106-2.86-2.853
		l0.946-2.933c0.178-0.539-0.064-1.138-0.537-1.332c-0.467-0.195-1.235-0.509-1.703-0.706c-0.468-0.197-1.062,0.056-1.321,0.563
		L38.2,18.064c-1.312-0.25-2.682-0.268-4.038-0.003l-1.403-2.738c-0.257-0.509-0.853-0.761-1.32-0.566
		C30.972,14.955,30.206,15.276,29.737,15.466z M40.142,26.979c0.904,2.183-0.136,4.696-2.319,5.599
		c-2.185,0.904-4.697-0.136-5.601-2.317c-0.906-2.184,0.136-4.695,2.32-5.6C36.727,23.756,39.239,24.794,40.142,26.979z"/>
	
		<linearGradient id="SVGID_1_" gradientUnits="userSpaceOnUse" x1="-3977.1064" y1="2813.6914" x2="-3955.3281" y2="2816.5586" gradientTransform="matrix(0.1305 -0.9915 -0.9915 -0.1305 3368.9731 -3536.665)">
		<stop  offset="0" style="stop-color:#6D6E71"/>
		<stop  offset="1" style="stop-color:#939598"/>
	</linearGradient>
	<path fill="url(#SVGID_1_)" d="M60.934,18.526c-0.378-0.053-0.759,0.249-0.85,0.664l-0.486,2.258
		c-1.035,0.077-2.024,0.353-2.93,0.79l-1.549-1.718c-0.286-0.312-0.768-0.385-1.068-0.151c-0.3,0.235-0.797,0.613-1.102,0.845
		c-0.301,0.23-0.358,0.713-0.129,1.07l1.258,1.943c-0.658,0.758-1.182,1.646-1.521,2.626l-2.306-0.119
		c-0.427-0.021-0.815,0.272-0.865,0.648c-0.047,0.38-0.128,0.997-0.179,1.373c-0.052,0.382,0.25,0.762,0.664,0.851l2.26,0.484
		c0.075,1.035,0.354,2.027,0.788,2.928L51.2,34.571c-0.315,0.284-0.384,0.767-0.151,1.067c0.235,0.305,0.613,0.796,0.846,1.102
		c0.229,0.3,0.711,0.359,1.071,0.127l1.941-1.258c0.761,0.66,1.646,1.181,2.626,1.519l-0.114,2.31
		c-0.024,0.427,0.269,0.813,0.646,0.862c0.377,0.049,0.994,0.129,1.375,0.181c0.38,0.053,0.759-0.249,0.849-0.665l0.485-2.259
		c1.035-0.077,2.024-0.352,2.931-0.788l1.553,1.714c0.282,0.319,0.767,0.387,1.065,0.154c0.303-0.232,0.797-0.612,1.1-0.846
		c0.305-0.228,0.359-0.711,0.127-1.069l-1.258-1.944c0.658-0.758,1.182-1.645,1.521-2.623l2.309,0.115
		c0.428,0.023,0.812-0.27,0.861-0.648c0.052-0.376,0.132-0.996,0.182-1.372c0.053-0.376-0.248-0.76-0.663-0.847l-2.259-0.488
		c-0.076-1.035-0.354-2.025-0.789-2.926l1.715-1.557c0.321-0.282,0.388-0.763,0.152-1.066c-0.231-0.302-0.614-0.796-0.846-1.1
		c-0.229-0.303-0.709-0.362-1.069-0.128l-1.941,1.258c-0.757-0.656-1.646-1.181-2.626-1.521l0.116-2.306
		c0.022-0.428-0.271-0.815-0.646-0.862C61.93,18.657,61.311,18.577,60.934,18.526z M63.375,29.925
		c-0.229,1.758-1.852,3.003-3.61,2.77c-1.76-0.231-3.002-1.851-2.771-3.61c0.231-1.76,1.854-3.001,3.614-2.773
		C62.367,26.544,63.611,28.165,63.375,29.925z"/>
	
		<linearGradient id="SVGID_2_" gradientUnits="userSpaceOnUse" x1="-2488.313" y1="3332.1445" x2="-2488.313" y2="3429.7744" gradientTransform="matrix(1 0 0 -1 2538 3431)">
		<stop  offset="0" style="stop-color:#58595B"/>
		<stop  offset="1" style="stop-color:#A7A9AC"/>
	</linearGradient>
	<path fill="url(#SVGID_2_)" d="M86.709,51.376c-3.221-4.639-4.691-7.333-5.15-8.202c-0.08-0.157-1.621-2.443-1.621-4.604
		c0-1.896,1.684-9.909-1.807-17.979C72.373,9.119,60.529,1.225,46.815,1.225c-19.361,0-35.056,15.694-35.056,35.052
		c0,9.114,3.879,17.16,9.205,23.621c5.043,6.117,9.863,24.199-1.816,29.261c-1.39,0-2.53,1.14-2.53,2.53v4.639
		c0,1.392,1.14,2.527,2.53,2.527h41.023c1.392,0,2.531-1.137,2.531-2.527s-6.485-7.1-2.836-14.063
		c2.735-5.221,11.476-5.325,16.038-5.325c2.4,0,4.576-1.285,5.001-3.355c0.425-2.071,0.94-5.314,0.94-5.314s0.031-1.16,0.704-1.834
		c0.233-0.232,1.743-0.592,1.743-1.799c0-1.191-0.991-1.182-0.991-1.548c0-0.331,1.23-0.418,1.23-1.801
		c0-1.377-1.655-2.001-1.655-3.698c0-1.188,2.374-1.262,3.792-2.137C87.793,54.834,88.044,52.993,86.709,51.376z M43.743,47.323
		c-12.861,0-26.011-3.467-26.514-15.783C19.512,17.25,31.891,6.282,46.815,6.282c11.347,0,21.575,6.298,26.73,16.448
		c0.914,2.158,1.369,4.313,1.581,6.323C74.634,42.847,56.672,47.323,43.743,47.323z"/>
</g>
</svg>
